<?xml version="1.0" encoding="UTF-8" standalone="no"?>
<!DOCTYPE svg PUBLIC "-//W3C//DTD SVG 1.1//EN"
 "http://www.w3.org/Graphics/SVG/1.1/DTD/svg11.dtd">
<!-- Generated by graphviz version 2.47.1 (20210417.1919)
 -->
<!-- Title: Máquina de Turing que aceita sequências binárias com mais 0&#39;s que 1&#39;s Pages: 1 -->
<svg width="341pt" height="235pt"
 viewBox="0.00 0.00 340.70 234.85" xmlns="http://www.w3.org/2000/svg" xmlns:xlink="http://www.w3.org/1999/xlink">
<g id="graph0" class="graph" transform="scale(1 1) rotate(0) translate(4 230.85)">
<title>Máquina de Turing que aceita sequências binárias com mais 0&#39;s que 1&#39;s</title>
<polygon fill="white" stroke="transparent" points="-4,4 -4,-230.85 336.7,-230.85 336.7,4 -4,4"/>
<!-- Start -->
<g id="node1" class="node">
<title>Start</title>
</g>
<!-- A -->
<g id="node3" class="node">
<title>A</title>
<ellipse fill="none" stroke="black" cx="109" cy="-109.85" rx="18" ry="18"/>
<text text-anchor="middle" x="109" y="-106.15" font-family="Times New Roman,serif" font-size="14.00">A</text>
</g>
<!-- Start&#45;&gt;A -->
<g id="edge1" class="edge">
<title>Start&#45;&gt;A</title>
<path fill="none" stroke="black" d="M54.19,-109.85C62.65,-109.85 72.05,-109.85 80.6,-109.85"/>
<polygon fill="black" stroke="black" points="90.83,-109.85 80.83,-114.35 85.83,-109.85 80.83,-109.85 80.83,-109.85 80.83,-109.85 85.83,-109.85 80.83,-105.35 90.83,-109.85 90.83,-109.85"/>
</g>
<!-- C -->
<g id="node2" class="node">
<title>C</title>
<ellipse fill="none" stroke="black" cx="208" cy="-109.85" rx="18" ry="18"/>
<text text-anchor="middle" x="208" y="-106.15" font-family="Times New Roman,serif" font-size="14.00">C</text>
</g>
<!-- C&#45;&gt;C -->
<g id="edge7" class="edge">
<title>C&#45;&gt;C</title>
<path fill="none" stroke="black" d="M199.64,-126.14C197.62,-136.24 200.41,-145.85 208,-145.85 212.86,-145.85 215.76,-141.9 216.68,-136.41"/>
<polygon fill="black" stroke="black" points="216.36,-126.14 221.17,-136 216.52,-131.14 216.67,-136.13 216.67,-136.13 216.67,-136.13 216.52,-131.14 212.17,-136.27 216.36,-126.14 216.36,-126.14"/>
<text text-anchor="middle" x="208" y="-149.65" font-family="Times New Roman,serif" font-size="14.00">11R</text>
</g>
<!-- D -->
<g id="node4" class="node">
<title>D</title>
<ellipse fill="none" stroke="black" cx="309.85" cy="-109.85" rx="18" ry="18"/>
<text text-anchor="middle" x="309.85" y="-106.15" font-family="Times New Roman,serif" font-size="14.00">D</text>
</g>
<!-- C&#45;&gt;D -->
<g id="edge8" class="edge">
<title>C&#45;&gt;D</title>
<path fill="none" stroke="black" d="M226.39,-109.85C241.57,-109.85 263.85,-109.85 281.43,-109.85"/>
<polygon fill="black" stroke="black" points="291.66,-109.85 281.66,-114.35 286.66,-109.85 281.66,-109.85 281.66,-109.85 281.66,-109.85 286.66,-109.85 281.66,-105.35 291.66,-109.85 291.66,-109.85"/>
<text text-anchor="middle" x="256.5" y="-113.65" font-family="Times New Roman,serif" font-size="14.00">0XL</text>
</g>
<!-- A&#45;&gt;C -->
<g id="edge6" class="edge">
<title>A&#45;&gt;C</title>
<path fill="none" stroke="black" d="M127.34,-109.85C141.82,-109.85 162.74,-109.85 179.5,-109.85"/>
<polygon fill="black" stroke="black" points="189.81,-109.85 179.81,-114.35 184.81,-109.85 179.81,-109.85 179.81,-109.85 179.81,-109.85 184.81,-109.85 179.81,-105.35 189.81,-109.85 189.81,-109.85"/>
<text text-anchor="middle" x="158.5" y="-113.65" font-family="Times New Roman,serif" font-size="14.00">1XR</text>
</g>
<!-- A&#45;&gt;A -->
<g id="edge2" class="edge">
<title>A&#45;&gt;A</title>
<path fill="none" stroke="black" d="M102.62,-126.89C101.32,-136.71 103.45,-145.85 109,-145.85 112.47,-145.85 114.6,-142.28 115.4,-137.2"/>
<polygon fill="black" stroke="black" points="115.38,-126.89 119.9,-136.88 115.39,-131.89 115.4,-136.89 115.4,-136.89 115.4,-136.89 115.39,-131.89 110.9,-136.89 115.38,-126.89 115.38,-126.89"/>
<text text-anchor="middle" x="109" y="-149.65" font-family="Times New Roman,serif" font-size="14.00">XXR</text>
</g>
<!-- B -->
<g id="node5" class="node">
<title>B</title>
<ellipse fill="none" stroke="black" cx="208" cy="-22.85" rx="18" ry="18"/>
<text text-anchor="middle" x="208" y="-19.15" font-family="Times New Roman,serif" font-size="14.00">B</text>
</g>
<!-- A&#45;&gt;B -->
<g id="edge3" class="edge">
<title>A&#45;&gt;B</title>
<path fill="none" stroke="black" d="M123.08,-98.12C139.37,-83.5 167.38,-58.38 186.52,-41.21"/>
<polygon fill="black" stroke="black" points="194.13,-34.4 189.69,-44.42 190.4,-37.73 186.68,-41.07 186.68,-41.07 186.68,-41.07 190.4,-37.73 183.68,-37.72 194.13,-34.4 194.13,-34.4"/>
<text text-anchor="middle" x="158.5" y="-79.65" font-family="Times New Roman,serif" font-size="14.00">0XR</text>
</g>
<!-- D&#45;&gt;A -->
<g id="edge12" class="edge">
<title>D&#45;&gt;A</title>
<path fill="none" stroke="black" d="M296.8,-122.46C281.83,-137.14 254.72,-160.54 226,-169.85 210.78,-174.78 205.18,-174.91 190,-169.85 166.3,-161.95 143.96,-143.97 128.95,-129.74"/>
<polygon fill="black" stroke="black" points="121.79,-122.71 132.08,-126.51 125.36,-126.22 128.93,-129.72 128.93,-129.72 128.93,-129.72 125.36,-126.22 125.77,-132.93 121.79,-122.71 121.79,-122.71"/>
<text text-anchor="middle" x="208" y="-176.65" font-family="Times New Roman,serif" font-size="14.00">$$L</text>
</g>
<!-- D&#45;&gt;D -->
<g id="edge9" class="edge">
<title>D&#45;&gt;D</title>
<path fill="none" stroke="black" d="M306.73,-127.63C306.2,-137.16 307.24,-145.85 309.85,-145.85 311.44,-145.85 312.44,-142.62 312.87,-137.95"/>
<polygon fill="black" stroke="black" points="312.96,-127.63 317.37,-137.67 312.92,-132.63 312.87,-137.63 312.87,-137.63 312.87,-137.63 312.92,-132.63 308.37,-137.59 312.96,-127.63 312.96,-127.63"/>
<text text-anchor="middle" x="309.85" y="-149.65" font-family="Times New Roman,serif" font-size="14.00">00L</text>
</g>
<!-- D&#45;&gt;D -->
<g id="edge10" class="edge">
<title>D&#45;&gt;D</title>
<path fill="none" stroke="black" d="M304.73,-127.27C301.81,-144.64 303.52,-163.85 309.85,-163.85 314.94,-163.85 317.04,-151.41 316.15,-137.5"/>
<polygon fill="black" stroke="black" points="314.97,-127.27 320.58,-136.69 315.54,-132.24 316.11,-137.2 316.11,-137.2 316.11,-137.2 315.54,-132.24 311.64,-137.72 314.97,-127.27 314.97,-127.27"/>
<text text-anchor="middle" x="309.85" y="-167.65" font-family="Times New Roman,serif" font-size="14.00">11L</text>
</g>
<!-- D&#45;&gt;D -->
<g id="edge11" class="edge">
<title>D&#45;&gt;D</title>
<path fill="none" stroke="black" d="M303.54,-126.84C297.38,-151.37 299.49,-181.85 309.85,-181.85 318.83,-181.85 321.61,-158.93 318.17,-136.84"/>
<polygon fill="black" stroke="black" points="316.16,-126.84 322.55,-135.76 317.15,-131.74 318.13,-136.64 318.13,-136.64 318.13,-136.64 317.15,-131.74 313.72,-137.53 316.16,-126.84 316.16,-126.84"/>
<text text-anchor="middle" x="309.85" y="-185.65" font-family="Times New Roman,serif" font-size="14.00">XXL</text>
</g>
<!-- B&#45;&gt;D -->
<g id="edge5" class="edge">
<title>B&#45;&gt;D</title>
<path fill="none" stroke="black" d="M222.05,-34.22C238.87,-48.88 268.3,-74.52 288.18,-91.84"/>
<polygon fill="black" stroke="black" points="295.79,-98.47 285.3,-95.3 292.02,-95.19 288.25,-91.9 288.25,-91.9 288.25,-91.9 292.02,-95.19 291.21,-88.51 295.79,-98.47 295.79,-98.47"/>
<text text-anchor="middle" x="256.5" y="-77.65" font-family="Times New Roman,serif" font-size="14.00">1XL</text>
</g>
<!-- B&#45;&gt;B -->
<g id="edge4" class="edge">
<title>B&#45;&gt;B</title>
<path fill="none" stroke="black" d="M199.64,-39.14C197.62,-49.24 200.41,-58.85 208,-58.85 212.86,-58.85 215.76,-54.9 216.68,-49.41"/>
<polygon fill="black" stroke="black" points="216.36,-39.14 221.17,-49 216.52,-44.14 216.67,-49.13 216.67,-49.13 216.67,-49.13 216.52,-44.14 212.17,-49.27 216.36,-39.14 216.36,-39.14"/>
<text text-anchor="middle" x="208" y="-62.65" font-family="Times New Roman,serif" font-size="14.00">00R</text>
</g>
<!-- ha -->
<g id="node6" class="node">
<title>ha</title>
<ellipse fill="none" stroke="black" cx="309.85" cy="-22.85" rx="18.72" ry="18.72"/>
<ellipse fill="none" stroke="black" cx="309.85" cy="-22.85" rx="22.7" ry="22.7"/>
<text text-anchor="middle" x="309.85" y="-19.15" font-family="Times New Roman,serif" font-size="14.00">ha</text>
</g>
<!-- B&#45;&gt;ha -->
<g id="edge13" class="edge">
<title>B&#45;&gt;ha</title>
<path fill="none" stroke="black" d="M226.39,-22.85C240.14,-22.85 259.72,-22.85 276.35,-22.85"/>
<polygon fill="black" stroke="black" points="286.77,-22.85 276.77,-27.35 281.77,-22.85 276.77,-22.85 276.77,-22.85 276.77,-22.85 281.77,-22.85 276.77,-18.35 286.77,-22.85 286.77,-22.85"/>
<text text-anchor="middle" x="256.5" y="-26.65" font-family="Times New Roman,serif" font-size="14.00">$$R</text>
</g>
</g>
</svg>
